<svg id="svg" xmlns="http://www.w3.org/2000/svg" xmlns:xlink="http://www.w3.org/1999/xlink" width="400" height="400" viewBox="0, 0, 400,400"><g id="svgg"><path id="path0" d="M182.031 0.468 C 66.647 13.861,-12.022 110.908,1.159 223.594 C 18.642 373.047,190.995 450.528,314.453 364.435 C 447.482 271.668,420.708 68.382,267.969 11.498 C 245.085 2.976,204.883 -2.184,182.031 0.468 M187.237 93.492 C 187.082 93.647,176.350 93.680,163.387 93.566 L 139.819 93.359 144.745 83.594 C 155.285 62.700,169.049 44.360,181.897 34.089 L 187.109 29.921 187.314 61.566 C 187.426 78.971,187.391 93.338,187.237 93.492 M222.930 38.238 C 234.481 48.905,249.580 70.592,257.362 87.695 L 260.117 93.750 236.308 93.750 L 212.500 93.750 212.500 61.666 L 212.500 29.583 216.211 32.521 C 218.252 34.138,221.276 36.710,222.930 38.238 M147.960 33.008 C 147.647 33.545,146.092 35.566,144.504 37.500 C 135.933 47.936,123.808 68.640,116.711 84.957 L 112.891 93.742 86.451 93.746 L 60.011 93.750 63.373 89.648 C 84.005 64.477,113.179 43.954,142.566 33.939 C 149.067 31.724,148.669 31.792,147.960 33.008 M267.891 38.022 C 294.086 49.145,318.391 67.400,336.627 89.648 L 339.989 93.750 313.549 93.746 L 287.109 93.742 283.289 84.957 C 276.192 68.640,264.067 47.936,255.496 37.500 C 253.908 35.566,252.363 33.561,252.061 33.043 C 251.273 31.687,257.832 33.750,267.891 38.022 M104.688 118.405 C 104.688 118.645,103.669 122.952,102.424 127.975 C 98.473 143.921,94.535 169.575,94.532 179.395 C 94.532 181.167,94.312 183.716,94.043 185.059 L 93.555 187.500 59.277 187.500 L 25.000 187.500 25.000 185.061 C 25.000 171.173,33.779 139.397,42.295 122.461 L 44.554 117.969 74.621 117.969 C 91.157 117.969,104.688 118.165,104.688 118.405 M187.500 152.734 L 187.500 187.500 153.024 187.500 L 118.549 187.500 119.094 179.492 C 120.163 163.782,123.676 142.599,127.352 129.688 C 128.147 126.895,129.187 123.115,129.664 121.289 L 130.529 117.969 159.014 117.969 L 187.500 117.969 187.500 152.734 M270.336 121.289 C 270.813 123.115,271.853 126.895,272.648 129.688 C 276.324 142.599,279.837 163.782,280.906 179.492 L 281.451 187.500 246.976 187.500 L 212.500 187.500 212.500 152.734 L 212.500 117.969 240.986 117.969 L 269.471 117.969 270.336 121.289 M357.705 122.461 C 366.221 139.397,375.000 171.173,375.000 185.061 L 375.000 187.500 340.723 187.500 L 306.445 187.500 305.957 185.059 C 305.688 183.716,305.468 181.167,305.468 179.395 C 305.465 169.575,301.527 143.921,297.576 127.975 C 296.331 122.952,295.313 118.645,295.313 118.405 C 295.313 118.165,308.843 117.969,325.379 117.969 L 355.446 117.969 357.705 122.461 M94.043 214.941 C 94.312 216.284,94.532 218.833,94.532 220.605 C 94.535 230.425,98.473 256.079,102.424 272.025 C 103.669 277.048,104.688 281.355,104.688 281.595 C 104.688 281.835,91.157 282.031,74.621 282.031 L 44.554 282.031 42.295 277.539 C 33.779 260.603,25.000 228.827,25.000 214.939 L 25.000 212.500 59.277 212.500 L 93.555 212.500 94.043 214.941 M187.500 247.266 L 187.500 282.031 159.014 282.031 L 130.529 282.031 129.664 278.711 C 129.187 276.885,128.147 273.105,127.352 270.313 C 123.676 257.401,120.163 236.218,119.094 220.508 L 118.549 212.500 153.024 212.500 L 187.500 212.500 187.500 247.266 M280.906 220.508 C 279.837 236.218,276.324 257.401,272.648 270.313 C 271.853 273.105,270.813 276.885,270.336 278.711 L 269.471 282.031 240.986 282.031 L 212.500 282.031 212.500 247.266 L 212.500 212.500 246.976 212.500 L 281.451 212.500 280.906 220.508 M375.000 214.939 C 375.000 228.827,366.221 260.603,357.705 277.539 L 355.446 282.031 325.379 282.031 C 308.843 282.031,295.313 281.835,295.313 281.595 C 295.313 281.355,296.331 277.048,297.576 272.025 C 301.527 256.079,305.465 230.425,305.468 220.605 C 305.468 218.833,305.688 216.284,305.957 214.941 L 306.445 212.500 340.723 212.500 L 375.000 212.500 375.000 214.939 M116.711 315.043 C 123.808 331.360,135.933 352.064,144.504 362.500 C 148.986 367.959,148.985 368.047,144.438 366.697 C 116.944 358.532,84.222 335.788,63.373 310.352 L 60.011 306.250 86.451 306.254 L 112.891 306.258 116.711 315.043 M187.500 338.334 L 187.500 370.417 183.789 367.479 C 168.739 355.561,152.278 333.491,142.638 312.305 L 139.883 306.250 163.692 306.250 L 187.500 306.250 187.500 338.334 M257.362 312.305 C 247.722 333.491,231.261 355.561,216.211 367.479 L 212.500 370.417 212.500 338.334 L 212.500 306.250 236.308 306.250 L 260.117 306.250 257.362 312.305 M336.627 310.352 C 315.778 335.788,283.056 358.532,255.562 366.697 C 251.015 368.047,251.014 367.959,255.496 362.500 C 264.067 352.064,276.192 331.360,283.289 315.043 L 287.109 306.258 313.549 306.254 L 339.989 306.250 336.627 310.352 " stroke="none" fill="#000000" fill-rule="evenodd"></path></g></svg>